<svg width="4" height="6" viewBox="0 0 4 6" fill="none" xmlns="http://www.w3.org/2000/svg">
<g clip-path="url(#clip0_2942_188)">
<path d="M2.0038 0.488837C2.57211 1.15018 2.87548 1.96573 2.86448 2.80259V3.00235L3.05198 3.10693C3.29424 3.24137 3.47492 3.44988 3.5611 3.69448C3.48544 3.64342 3.40629 3.59671 3.32412 3.55464L2.82412 3.2973L2.73427 3.81669C2.72649 3.86258 2.71606 3.90808 2.70302 3.953H1.30198C1.28115 3.89424 1.26422 3.83549 1.2486 3.77438L1.13531 3.30435L0.674377 3.53937C0.597371 3.57884 0.523022 3.62239 0.451721 3.6698C0.539569 3.42803 0.716477 3.22069 0.953023 3.08226L1.13141 2.97767V2.79201C1.13463 1.95855 1.44165 1.14921 2.00511 0.488837H2.0038ZM2.00511 0C1.97588 6.50511e-05 1.94767 0.00966427 1.92568 0.027027L1.91396 0.0364277C1.16312 0.794273 0.746191 1.77424 0.742085 2.79083C0.423465 2.97739 0.187617 3.25906 0.0757551 3.58661C-0.0361071 3.91417 -0.0168695 4.26679 0.130106 4.58284C0.284937 4.27425 0.543763 4.01763 0.86969 3.84959C0.902377 3.97737 0.945908 4.10269 0.999898 4.22444C1.00675 4.24785 1.02192 4.26857 1.04309 4.28344C1.06427 4.2983 1.09026 4.30647 1.11709 4.3067H2.92438C2.96084 4.3067 2.99729 4.27497 3.01552 4.22562C3.06822 4.10986 3.10495 3.9887 3.1249 3.86486C3.45145 4.03221 3.71048 4.28903 3.86448 4.59812C4.02033 4.28362 4.04445 3.92878 3.93239 3.59944C3.82032 3.27011 3.57968 2.98864 3.25511 2.80729C3.26798 1.78469 2.85326 0.795299 2.09365 0.0364277C2.08234 0.0250141 2.06849 0.0158733 2.05302 0.00959784C2.03754 0.0033224 2.02077 5.24581e-05 2.0038 0L2.00511 0Z" fill="#4EA8DE"/>
<path d="M2.00381 2.6933C1.9038 2.6933 1.80603 2.66658 1.72282 2.6165C1.63961 2.56643 1.57469 2.49525 1.53624 2.41193C1.49779 2.3286 1.48754 2.23688 1.50677 2.1483C1.52599 2.05973 1.57385 1.97828 1.6443 1.91421C1.71474 1.85015 1.80463 1.80633 1.90262 1.7883C2.00062 1.77027 2.10233 1.77882 2.19495 1.81288C2.28757 1.84693 2.36694 1.90497 2.42307 1.97968C2.47919 2.05438 2.50955 2.14241 2.51032 2.23267V2.23267C2.51188 2.29116 2.50065 2.34935 2.47728 2.40392C2.45391 2.45849 2.41885 2.50838 2.37411 2.55072C2.32937 2.59306 2.27582 2.62703 2.21653 2.65069C2.15724 2.67435 2.09336 2.68723 2.02855 2.6886C2.02036 2.68979 2.012 2.68979 2.00381 2.6886V2.6933Z" fill="#4EA8DE"/>
<path d="M2.70817 4.5993C2.67559 4.59835 2.64313 4.6033 2.6127 4.61383C2.58226 4.62436 2.55446 4.64027 2.53093 4.66063C2.5074 4.68099 2.48862 4.70539 2.47568 4.73239C2.46273 4.75939 2.4559 4.78845 2.45557 4.81786V5.51116C2.45557 5.57162 2.48218 5.62961 2.52955 5.67236C2.57692 5.71511 2.64118 5.73913 2.70817 5.73913C2.77517 5.73913 2.83942 5.71511 2.88679 5.67236C2.93416 5.62961 2.96077 5.57162 2.96077 5.51116V4.82726C2.96182 4.79796 2.95638 4.76876 2.94479 4.74137C2.9332 4.71398 2.91568 4.68894 2.89326 4.66773C2.87084 4.64651 2.84397 4.62953 2.8142 4.61778C2.78443 4.60603 2.75237 4.59975 2.71989 4.5993H2.70817Z" fill="#5E60CE"/>
<path d="M1.30192 4.59928C1.26879 4.5977 1.23564 4.60215 1.20445 4.61236C1.17326 4.62258 1.14467 4.63835 1.12037 4.65874C1.09608 4.67914 1.07657 4.70373 1.06302 4.73106C1.04947 4.7584 1.04216 4.78791 1.0415 4.81785V5.51115C1.0415 5.57161 1.06812 5.62959 1.11549 5.67235C1.16286 5.7151 1.22711 5.73912 1.29411 5.73912C1.3611 5.73912 1.42535 5.7151 1.47273 5.67235C1.5201 5.62959 1.54671 5.57161 1.54671 5.51115V4.82725C1.54775 4.79794 1.54232 4.76874 1.53073 4.74135C1.51914 4.71396 1.50162 4.68893 1.4792 4.66771C1.45678 4.64649 1.4299 4.62951 1.40014 4.61777C1.37037 4.60602 1.33831 4.59973 1.30583 4.59928H1.30192Z" fill="#5E60CE"/>
<path d="M1.98551 4.59929C1.95302 4.59867 1.92072 4.60383 1.89044 4.61448C1.86015 4.62512 1.8325 4.64105 1.80904 4.66135C1.78558 4.68165 1.76678 4.70591 1.75372 4.73277C1.74066 4.75962 1.73359 4.78854 1.73291 4.81786V5.77321C1.73291 5.83367 1.75952 5.89165 1.8069 5.9344C1.85427 5.97716 1.91852 6.00117 1.98551 6.00117C2.05251 6.00117 2.11676 5.97716 2.16413 5.9344C2.21151 5.89165 2.23812 5.83367 2.23812 5.77321V4.83314C2.23916 4.80383 2.23373 4.77463 2.22213 4.74724C2.21054 4.71985 2.19303 4.69482 2.17061 4.6736C2.14819 4.65238 2.12131 4.6354 2.09154 4.62365C2.06178 4.61191 2.02972 4.60562 1.99723 4.60517L1.98551 4.59929Z" fill="#5E60CE"/>
</g>
<defs>
<clipPath id="clip0_2942_188">
<rect width="4" height="6" fill="white"/>
</clipPath>
</defs>
</svg>
